<svg xmlns="http://www.w3.org/2000/svg" width="420" height="420" viewBox="0 0 420 420"><defs><linearGradient id="night" x2="0" y2="1"><stop stop-color="#161d2a"/><stop offset="1" stop-color="#05070a"/></linearGradient><linearGradient id="lime" x2="1" y2="1"><stop stop-color="#c6ff56"/><stop offset="1" stop-color="#56e0b8"/></linearGradient><filter id="glow"><feGaussianBlur stdDeviation="18"/></filter><filter id="grain"><feTurbulence baseFrequency=".55" numOctaves="3"/><feColorMatrix values="1 0 0 0 0  0 1 0 0 0  0 0 1 0 0  0 0 0 .12 0"/></filter></defs><rect width="420" height="420" fill="url(#night)"/><g filter="url(#glow)" opacity=".75"><circle cx="90" cy="80" r="58" fill="#b7ff3c"/><circle cx="338" cy="125" r="70" fill="#315dff"/></g><path d="M35 0 L125 330 L185 330 Z" fill="#46bfff" opacity="0.05"/><path d="M93 0 L156 330 L196 330 Z" fill="#b7ff3c" opacity="0.07500000000000001"/><path d="M151 0 L187 330 L207 330 Z" fill="#46bfff" opacity="0.1"/><path d="M209 0 L218 330 L218 330 Z" fill="#b7ff3c" opacity="0.05"/><path d="M267 0 L249 330 L229 330 Z" fill="#46bfff" opacity="0.07500000000000001"/><path d="M325 0 L280 330 L240 330 Z" fill="#b7ff3c" opacity="0.1"/><path d="M383 0 L311 330 L251 330 Z" fill="#46bfff" opacity="0.05"/><rect x="62" y="64" width="296" height="204" rx="9" fill="#0a0d12"/><path d="M82 232 Q150 150 208 211 T338 154" fill="none" stroke="#b7ff3c" stroke-width="4"/><path d="M82 235 Q150 174 208 228 T338 188" fill="none" stroke="#fff" opacity=".24"/><g transform="translate(144 161)"><circle cx="66" cy="18" r="20" fill="#090a0c"/><path d="M22 100 Q66 42 110 100v40H22z" fill="#090a0c"/><path d="M7 86 Q66 66 125 86" stroke="#b7ff3c" stroke-width="5" fill="none"/></g><circle cx="10" cy="350" r="15" fill="#020304"/><path d="M10 362v58" stroke="#020304" stroke-width="18"/><circle cx="27" cy="341" r="18" fill="#020304"/><path d="M27 362v58" stroke="#020304" stroke-width="21"/><circle cx="44" cy="332" r="21" fill="#020304"/><path d="M44 362v58" stroke="#020304" stroke-width="24"/><circle cx="61" cy="323" r="15" fill="#020304"/><path d="M61 362v58" stroke="#020304" stroke-width="27"/><circle cx="78" cy="314" r="18" fill="#020304"/><path d="M78 362v58" stroke="#020304" stroke-width="18"/><circle cx="95" cy="350" r="21" fill="#020304"/><path d="M95 362v58" stroke="#020304" stroke-width="21"/><circle cx="112" cy="341" r="15" fill="#020304"/><path d="M112 362v58" stroke="#020304" stroke-width="24"/><circle cx="129" cy="332" r="18" fill="#020304"/><path d="M129 362v58" stroke="#020304" stroke-width="27"/><circle cx="146" cy="323" r="21" fill="#020304"/><path d="M146 362v58" stroke="#020304" stroke-width="18"/><circle cx="163" cy="314" r="15" fill="#020304"/><path d="M163 362v58" stroke="#020304" stroke-width="21"/><circle cx="180" cy="350" r="18" fill="#020304"/><path d="M180 362v58" stroke="#020304" stroke-width="24"/><circle cx="197" cy="341" r="21" fill="#020304"/><path d="M197 362v58" stroke="#020304" stroke-width="27"/><circle cx="214" cy="332" r="15" fill="#020304"/><path d="M214 362v58" stroke="#020304" stroke-width="18"/><circle cx="231" cy="323" r="18" fill="#020304"/><path d="M231 362v58" stroke="#020304" stroke-width="21"/><circle cx="248" cy="314" r="21" fill="#020304"/><path d="M248 362v58" stroke="#020304" stroke-width="24"/><circle cx="265" cy="350" r="15" fill="#020304"/><path d="M265 362v58" stroke="#020304" stroke-width="27"/><circle cx="282" cy="341" r="18" fill="#020304"/><path d="M282 362v58" stroke="#020304" stroke-width="18"/><circle cx="299" cy="332" r="21" fill="#020304"/><path d="M299 362v58" stroke="#020304" stroke-width="21"/><circle cx="316" cy="323" r="15" fill="#020304"/><path d="M316 362v58" stroke="#020304" stroke-width="24"/><circle cx="333" cy="314" r="18" fill="#020304"/><path d="M333 362v58" stroke="#020304" stroke-width="27"/><circle cx="350" cy="350" r="21" fill="#020304"/><path d="M350 362v58" stroke="#020304" stroke-width="18"/><circle cx="367" cy="341" r="15" fill="#020304"/><path d="M367 362v58" stroke="#020304" stroke-width="21"/><circle cx="384" cy="332" r="18" fill="#020304"/><path d="M384 362v58" stroke="#020304" stroke-width="24"/><circle cx="401" cy="323" r="21" fill="#020304"/><path d="M401 362v58" stroke="#020304" stroke-width="27"/><circle cx="418" cy="314" r="15" fill="#020304"/><path d="M418 362v58" stroke="#020304" stroke-width="18"/><text x="28" y="42" font-family="Inter,sans-serif" font-size="13" font-weight="800" letter-spacing="4" fill="#b7ff3c">LIVE</text><rect width="420" height="420" filter="url(#grain)" opacity=".22"/></svg>