<svg xmlns="http://www.w3.org/2000/svg" width="780" height="560" viewBox="0 0 780 560">
  <rect width="780" height="560" fill="#f3f0e9"/>
  <path d="M-20 470 Q 120 430 250 470 Q 380 512 520 468 Q 640 430 800 458 L800 600 L-20 600 Z" fill="#bfdcea"/>
  <ellipse cx="196" cy="212" rx="132" ry="88" fill="#d7e8c8"/>
  <ellipse cx="612" cy="252" rx="96" ry="70" fill="#d7e8c8"/>
  <rect x="574" y="283" width="38" height="24" rx="3" fill="#e8e4da"/><rect x="677" y="217" width="61" height="56" rx="3" fill="#e8e4da"/><rect x="64" y="512" width="39" height="65" rx="3" fill="#e8e4da"/><rect x="318" y="102" width="65" height="31" rx="3" fill="#e8e4da"/><rect x="443" y="89" width="65" height="46" rx="3" fill="#e8e4da"/><rect x="97" y="214" width="80" height="47" rx="3" fill="#e8e4da"/><rect x="38" y="419" width="63" height="55" rx="3" fill="#e8e4da"/><rect x="605" y="535" width="60" height="54" rx="3" fill="#e8e4da"/><rect x="400" y="106" width="80" height="50" rx="3" fill="#e8e4da"/><rect x="555" y="411" width="42" height="65" rx="3" fill="#e8e4da"/><rect x="42" y="196" width="47" height="42" rx="3" fill="#e8e4da"/><rect x="549" y="462" width="47" height="57" rx="3" fill="#e8e4da"/><rect x="35" y="127" width="57" height="47" rx="3" fill="#e8e4da"/><rect x="74" y="77" width="26" height="59" rx="3" fill="#e8e4da"/><rect x="736" y="195" width="30" height="41" rx="3" fill="#e8e4da"/><rect x="437" y="54" width="41" height="27" rx="3" fill="#e8e4da"/><rect x="237" y="188" width="71" height="62" rx="3" fill="#e8e4da"/><rect x="588" y="278" width="75" height="50" rx="3" fill="#e8e4da"/><rect x="650" y="19" width="79" height="53" rx="3" fill="#e8e4da"/><rect x="398" y="40" width="44" height="65" rx="3" fill="#e8e4da"/><rect x="307" y="164" width="51" height="24" rx="3" fill="#e8e4da"/><rect x="761" y="388" width="62" height="51" rx="3" fill="#e8e4da"/><rect x="278" y="364" width="37" height="40" rx="3" fill="#e8e4da"/><rect x="779" y="441" width="72" height="48" rx="3" fill="#e8e4da"/><rect x="151" y="517" width="60" height="40" rx="3" fill="#e8e4da"/><rect x="36" y="515" width="51" height="41" rx="3" fill="#e8e4da"/>
  <path d="M-20 150 Q 200 128 420 158 T 800 140" fill="none" stroke="#e2ded4" stroke-width="19" stroke-linecap="round"/><path d="M-20 330 Q 240 352 460 330 T 800 348" fill="none" stroke="#e2ded4" stroke-width="25" stroke-linecap="round"/><path d="M-20 486 Q 260 466 520 492 T 800 476" fill="none" stroke="#e2ded4" stroke-width="17" stroke-linecap="round"/><path d="M120 -20 Q 138 200 118 400 T 140 580" fill="none" stroke="#e2ded4" stroke-width="18" stroke-linecap="round"/><path d="M340 -20 Q 356 180 344 380 T 358 580" fill="none" stroke="#e2ded4" stroke-width="23" stroke-linecap="round"/><path d="M560 -20 Q 574 200 556 400 T 572 580" fill="none" stroke="#e2ded4" stroke-width="16" stroke-linecap="round"/><path d="M660 -20 Q 672 160 656 340 T 668 580" fill="none" stroke="#e2ded4" stroke-width="13" stroke-linecap="round"/>
  <path d="M-20 150 Q 200 128 420 158 T 800 140" fill="none" stroke="#ffffff" stroke-width="16" stroke-linecap="round"/><path d="M-20 330 Q 240 352 460 330 T 800 348" fill="none" stroke="#ffffff" stroke-width="22" stroke-linecap="round"/><path d="M-20 486 Q 260 466 520 492 T 800 476" fill="none" stroke="#ffffff" stroke-width="14" stroke-linecap="round"/><path d="M120 -20 Q 138 200 118 400 T 140 580" fill="none" stroke="#ffffff" stroke-width="15" stroke-linecap="round"/><path d="M340 -20 Q 356 180 344 380 T 358 580" fill="none" stroke="#ffffff" stroke-width="20" stroke-linecap="round"/><path d="M560 -20 Q 574 200 556 400 T 572 580" fill="none" stroke="#ffffff" stroke-width="13" stroke-linecap="round"/><path d="M660 -20 Q 672 160 656 340 T 668 580" fill="none" stroke="#ffffff" stroke-width="10" stroke-linecap="round"/>
  <g font-family="Outfit, sans-serif" font-size="13" fill="#8b8578">
    <text x="150" y="216">Парк</text>
    <text x="576" y="256">Сквер</text>
    <text x="386" y="322" transform="rotate(-3 386 322)">ул. Садовая</text>
    <text x="128" y="300" transform="rotate(-86 128 300)">пр. Мира</text>
  </g>
</svg>