<svg xmlns="http://www.w3.org/2000/svg" width="780" height="520" viewBox="0 0 780 520">
  <rect width="780" height="520" fill="#f4f1ea"/>
  <rect x="40" y="150" width="250" height="120" rx="6" fill="#eae6da"/>
  <ellipse cx="676" cy="150" rx="104" ry="72" fill="#dbe8cb"/>
  <rect x="704" y="391" width="62" height="55" rx="3" fill="#e9e5db"/><rect x="115" y="123" width="37" height="61" rx="3" fill="#e9e5db"/><rect x="737" y="288" width="80" height="24" rx="3" fill="#e9e5db"/><rect x="450" y="460" width="59" height="46" rx="3" fill="#e9e5db"/><rect x="180" y="270" width="32" height="37" rx="3" fill="#e9e5db"/><rect x="303" y="236" width="59" height="49" rx="3" fill="#e9e5db"/><rect x="527" y="223" width="47" height="31" rx="3" fill="#e9e5db"/><rect x="595" y="134" width="57" height="54" rx="3" fill="#e9e5db"/><rect x="322" y="444" width="35" height="62" rx="3" fill="#e9e5db"/><rect x="460" y="358" width="68" height="53" rx="3" fill="#e9e5db"/><rect x="319" y="311" width="71" height="55" rx="3" fill="#e9e5db"/><rect x="95" y="273" width="56" height="42" rx="3" fill="#e9e5db"/><rect x="706" y="449" width="38" height="51" rx="3" fill="#e9e5db"/><rect x="468" y="60" width="46" height="33" rx="3" fill="#e9e5db"/><rect x="329" y="516" width="56" height="41" rx="3" fill="#e9e5db"/><rect x="650" y="498" width="68" height="54" rx="3" fill="#e9e5db"/><rect x="67" y="196" width="64" height="34" rx="3" fill="#e9e5db"/><rect x="725" y="37" width="50" height="46" rx="3" fill="#e9e5db"/><rect x="401" y="85" width="63" height="54" rx="3" fill="#e9e5db"/><rect x="271" y="365" width="34" height="55" rx="3" fill="#e9e5db"/><rect x="19" y="41" width="34" height="46" rx="3" fill="#e9e5db"/><rect x="407" y="330" width="53" height="26" rx="3" fill="#e9e5db"/>
  <rect x="458" y="356" width="252" height="96" rx="6" fill="#efeade"/>
  <rect x="466" y="368" width="17" height="20" rx="2" fill="#ded8cc"/><rect x="487" y="368" width="17" height="20" rx="2" fill="#ded8cc"/><rect x="508" y="368" width="17" height="20" rx="2" fill="#ded8cc"/><rect x="529" y="368" width="17" height="20" rx="2" fill="#ded8cc"/><rect x="550" y="368" width="17" height="20" rx="2" fill="#ded8cc"/><rect x="571" y="368" width="17" height="20" rx="2" fill="#ded8cc"/><rect x="592" y="368" width="17" height="20" rx="2" fill="#ded8cc"/><rect x="613" y="368" width="17" height="20" rx="2" fill="#ded8cc"/><rect x="634" y="368" width="17" height="20" rx="2" fill="#ded8cc"/><rect x="655" y="368" width="17" height="20" rx="2" fill="#ded8cc"/><rect x="676" y="368" width="17" height="20" rx="2" fill="#ded8cc"/><rect x="466" y="394" width="17" height="20" rx="2" fill="#ded8cc"/><rect x="487" y="394" width="17" height="20" rx="2" fill="#ded8cc"/><rect x="508" y="394" width="17" height="20" rx="2" fill="#ded8cc"/><rect x="529" y="394" width="17" height="20" rx="2" fill="#ded8cc"/><rect x="550" y="394" width="17" height="20" rx="2" fill="#ded8cc"/><rect x="571" y="394" width="17" height="20" rx="2" fill="#ded8cc"/><rect x="592" y="394" width="17" height="20" rx="2" fill="#ded8cc"/><rect x="613" y="394" width="17" height="20" rx="2" fill="#ded8cc"/><rect x="634" y="394" width="17" height="20" rx="2" fill="#ded8cc"/><rect x="655" y="394" width="17" height="20" rx="2" fill="#ded8cc"/><rect x="676" y="394" width="17" height="20" rx="2" fill="#ded8cc"/><rect x="466" y="420" width="17" height="20" rx="2" fill="#ded8cc"/><rect x="487" y="420" width="17" height="20" rx="2" fill="#ded8cc"/><rect x="508" y="420" width="17" height="20" rx="2" fill="#ded8cc"/><rect x="529" y="420" width="17" height="20" rx="2" fill="#ded8cc"/><rect x="550" y="420" width="17" height="20" rx="2" fill="#ded8cc"/><rect x="571" y="420" width="17" height="20" rx="2" fill="#ded8cc"/><rect x="592" y="420" width="17" height="20" rx="2" fill="#ded8cc"/><rect x="613" y="420" width="17" height="20" rx="2" fill="#ded8cc"/><rect x="634" y="420" width="17" height="20" rx="2" fill="#ded8cc"/><rect x="655" y="420" width="17" height="20" rx="2" fill="#ded8cc"/><rect x="676" y="420" width="17" height="20" rx="2" fill="#ded8cc"/>
  <path d="M-20 118 Q 220 96 440 126 T 800 108" fill="none" stroke="#e0dbd1" stroke-width="18" stroke-linecap="round"/><path d="M-20 296 Q 250 320 470 296 T 800 314" fill="none" stroke="#e0dbd1" stroke-width="27" stroke-linecap="round"/><path d="M-20 452 Q 240 432 500 458 T 800 442" fill="none" stroke="#e0dbd1" stroke-width="16" stroke-linecap="round"/><path d="M148 -20 Q 164 180 144 380 T 166 540" fill="none" stroke="#e0dbd1" stroke-width="21" stroke-linecap="round"/><path d="M392 -20 Q 408 160 396 360 T 410 540" fill="none" stroke="#e0dbd1" stroke-width="24" stroke-linecap="round"/><path d="M614 -20 Q 628 180 610 380 T 624 540" fill="none" stroke="#e0dbd1" stroke-width="15" stroke-linecap="round"/>
  <path d="M-20 118 Q 220 96 440 126 T 800 108" fill="none" stroke="#ffffff" stroke-width="15" stroke-linecap="round"/><path d="M-20 296 Q 250 320 470 296 T 800 314" fill="none" stroke="#ffffff" stroke-width="24" stroke-linecap="round"/><path d="M-20 452 Q 240 432 500 458 T 800 442" fill="none" stroke="#ffffff" stroke-width="13" stroke-linecap="round"/><path d="M148 -20 Q 164 180 144 380 T 166 540" fill="none" stroke="#ffffff" stroke-width="18" stroke-linecap="round"/><path d="M392 -20 Q 408 160 396 360 T 410 540" fill="none" stroke="#ffffff" stroke-width="21" stroke-linecap="round"/><path d="M614 -20 Q 628 180 610 380 T 624 540" fill="none" stroke="#ffffff" stroke-width="12" stroke-linecap="round"/>
  <g font-family="Manrope, sans-serif" font-size="13" fill="#8d867a">
    <text x="60" y="176">Промзона</text>
    <text x="640" y="154">Парк</text>
    <text x="470" y="350">ГСК «Восход»</text>
    <text x="300" y="290" transform="rotate(-4 300 290)">Индустриальный пр.</text>
    <text x="156" y="240" transform="rotate(-84 156 240)">ул. Кузнечная</text>
  </g>
</svg>