<svg xmlns="http://www.w3.org/2000/svg" width="686" height="88" viewBox="0 0 686 88"><rect x="0" y="39.8" width="3" height="8.4" rx="1.5" fill="#3a5a78"/><rect x="5" y="40.6" width="3" height="6.8" rx="1.5" fill="#3a5a78"/><rect x="10" y="38.6" width="3" height="10.8" rx="1.5" fill="#3a5a78"/><rect x="15" y="20.0" width="3" height="48.1" rx="1.5" fill="#3a5a78"/><rect x="20" y="2.1" width="3" height="83.8" rx="1.5" fill="#3a5a78"/><rect x="25" y="34.4" width="3" height="19.2" rx="1.5" fill="#3a5a78"/><rect x="30" y="40.1" width="3" height="7.9" rx="1.5" fill="#3a5a78"/><rect x="35" y="39.5" width="3" height="9.1" rx="1.5" fill="#3a5a78"/><rect x="40" y="39.9" width="3" height="8.2" rx="1.5" fill="#3a5a78"/><rect x="45" y="40.5" width="3" height="7.1" rx="1.5" fill="#3a5a78"/><rect x="50" y="39.8" width="3" height="8.5" rx="1.5" fill="#3a5a78"/><rect x="55" y="38.8" width="3" height="10.4" rx="1.5" fill="#3a5a78"/><rect x="60" y="39.4" width="3" height="9.2" rx="1.5" fill="#3a5a78"/><rect x="65" y="40.5" width="3" height="7.0" rx="1.5" fill="#3a5a78"/><rect x="70" y="40.1" width="3" height="7.8" rx="1.5" fill="#3a5a78"/><rect x="75" y="40.6" width="3" height="6.8" rx="1.5" fill="#3a5a78"/><rect x="80" y="40.1" width="3" height="7.7" rx="1.5" fill="#3a5a78"/><rect x="85" y="39.1" width="3" height="9.7" rx="1.5" fill="#3a5a78"/><rect x="90" y="24.5" width="3" height="39.1" rx="1.5" fill="#3a5a78"/><rect x="95" y="0.0" width="3" height="88.0" rx="1.5" fill="#3a5a78"/><rect x="100" y="32.0" width="3" height="24.1" rx="1.5" fill="#3a5a78"/><rect x="105" y="39.1" width="3" height="9.8" rx="1.5" fill="#3a5a78"/><rect x="110" y="40.8" width="3" height="6.4" rx="1.5" fill="#3a5a78"/><rect x="115" y="38.9" width="3" height="10.1" rx="1.5" fill="#3a5a78"/><rect x="120" y="39.0" width="3" height="10.1" rx="1.5" fill="#3a5a78"/><rect x="125" y="41.1" width="3" height="5.9" rx="1.5" fill="#3a5a78"/><rect x="130" y="38.7" width="3" height="10.5" rx="1.5" fill="#3a5a78"/><rect x="135" y="39.0" width="3" height="10.0" rx="1.5" fill="#3a5a78"/><rect x="140" y="40.3" width="3" height="7.5" rx="1.5" fill="#3a5a78"/><rect x="145" y="39.6" width="3" height="8.7" rx="1.5" fill="#3a5a78"/><rect x="150" y="40.0" width="3" height="8.0" rx="1.5" fill="#3a5a78"/><rect x="155" y="39.5" width="3" height="9.0" rx="1.5" fill="#3a5a78"/><rect x="160" y="40.9" width="3" height="6.2" rx="1.5" fill="#3a5a78"/><rect x="165" y="28.0" width="3" height="31.9" rx="1.5" fill="#3a5a78"/><rect x="170" y="0.0" width="3" height="88.0" rx="1.5" fill="#3a5a78"/><rect x="175" y="28.5" width="3" height="31.0" rx="1.5" fill="#3a5a78"/><rect x="180" y="40.6" width="3" height="6.8" rx="1.5" fill="#3a5a78"/><rect x="185" y="40.3" width="3" height="7.3" rx="1.5" fill="#3a5a78"/><rect x="190" y="39.7" width="3" height="8.7" rx="1.5" fill="#3a5a78"/><rect x="195" y="40.1" width="3" height="7.8" rx="1.5" fill="#3a5a78"/><rect x="200" y="40.4" width="3" height="7.2" rx="1.5" fill="#3a5a78"/><rect x="205" y="38.9" width="3" height="10.3" rx="1.5" fill="#3a5a78"/><rect x="210" y="39.3" width="3" height="9.3" rx="1.5" fill="#3a5a78"/><rect x="215" y="40.5" width="3" height="7.0" rx="1.5" fill="#3a5a78"/><rect x="220" y="39.8" width="3" height="8.3" rx="1.5" fill="#3a5a78"/><rect x="225" y="40.9" width="3" height="6.2" rx="1.5" fill="#3a5a78"/><rect x="230" y="39.5" width="3" height="9.1" rx="1.5" fill="#3a5a78"/><rect x="235" y="40.8" width="3" height="6.4" rx="1.5" fill="#3a5a78"/><rect x="240" y="30.7" width="3" height="26.6" rx="1.5" fill="#3a5a78"/><rect x="245" y="0.4" width="3" height="87.2" rx="1.5" fill="#3a5a78"/><rect x="250" y="23.7" width="3" height="40.5" rx="1.5" fill="#3a5a78"/><rect x="255" y="40.6" width="3" height="6.9" rx="1.5" fill="#3a5a78"/><rect x="260" y="40.4" width="3" height="7.1" rx="1.5" fill="#3a5a78"/><rect x="265" y="40.1" width="3" height="7.9" rx="1.5" fill="#3a5a78"/><rect x="270" y="40.7" width="3" height="6.5" rx="1.5" fill="#3a5a78"/><rect x="275" y="40.4" width="3" height="7.2" rx="1.5" fill="#3a5a78"/><rect x="280" y="39.5" width="3" height="9.0" rx="1.5" fill="#3a5a78"/><rect x="285" y="40.8" width="3" height="6.4" rx="1.5" fill="#3a5a78"/><rect x="290" y="39.1" width="3" height="9.8" rx="1.5" fill="#3a5a78"/><rect x="295" y="40.1" width="3" height="7.7" rx="1.5" fill="#3a5a78"/><rect x="300" y="40.9" width="3" height="6.1" rx="1.5" fill="#3a5a78"/><rect x="305" y="39.2" width="3" height="9.5" rx="1.5" fill="#3a5a78"/><rect x="310" y="40.1" width="3" height="7.7" rx="1.5" fill="#3a5a78"/><rect x="315" y="34.5" width="3" height="19.0" rx="1.5" fill="#3a5a78"/><rect x="320" y="2.7" width="3" height="82.6" rx="1.5" fill="#3a5a78"/><rect x="325" y="21.0" width="3" height="46.0" rx="1.5" fill="#3a5a78"/><rect x="330" y="38.8" width="3" height="10.5" rx="1.5" fill="#3a5a78"/><rect x="335" y="39.1" width="3" height="9.8" rx="1.5" fill="#3a5a78"/><rect x="340" y="40.3" width="3" height="7.4" rx="1.5" fill="#3a5a78"/><rect x="345" y="39.0" width="3" height="9.9" rx="1.5" fill="#3a5a78"/><rect x="350" y="39.4" width="3" height="9.3" rx="1.5" fill="#3a5a78"/><rect x="355" y="39.6" width="3" height="8.8" rx="1.5" fill="#3a5a78"/><rect x="360" y="39.1" width="3" height="9.8" rx="1.5" fill="#3a5a78"/><rect x="365" y="40.0" width="3" height="8.0" rx="1.5" fill="#3a5a78"/><rect x="370" y="40.2" width="3" height="7.6" rx="1.5" fill="#3a5a78"/><rect x="375" y="39.3" width="3" height="9.4" rx="1.5" fill="#3a5a78"/><rect x="380" y="38.8" width="3" height="10.3" rx="1.5" fill="#3a5a78"/><rect x="385" y="40.1" width="3" height="7.9" rx="1.5" fill="#3a5a78"/><rect x="390" y="34.6" width="3" height="18.8" rx="1.5" fill="#3a5a78"/><rect x="395" y="5.1" width="3" height="77.8" rx="1.5" fill="#3a5a78"/><rect x="400" y="16.2" width="3" height="55.5" rx="1.5" fill="#3a5a78"/><rect x="405" y="39.4" width="3" height="9.2" rx="1.5" fill="#3a5a78"/><rect x="410" y="40.2" width="3" height="7.6" rx="1.5" fill="#3a5a78"/><rect x="415" y="40.9" width="3" height="6.1" rx="1.5" fill="#3a5a78"/><rect x="420" y="40.1" width="3" height="7.8" rx="1.5" fill="#3a5a78"/><rect x="425" y="40.8" width="3" height="6.4" rx="1.5" fill="#3a5a78"/><rect x="430" y="39.9" width="3" height="8.2" rx="1.5" fill="#3a5a78"/><rect x="435" y="39.8" width="3" height="8.5" rx="1.5" fill="#3a5a78"/><rect x="440" y="41.0" width="3" height="6.1" rx="1.5" fill="#3a5a78"/><rect x="445" y="41.0" width="3" height="5.9" rx="1.5" fill="#3a5a78"/><rect x="450" y="40.8" width="3" height="6.5" rx="1.5" fill="#3a5a78"/><rect x="455" y="40.5" width="3" height="6.9" rx="1.5" fill="#3a5a78"/><rect x="460" y="39.9" width="3" height="8.2" rx="1.5" fill="#3a5a78"/><rect x="465" y="36.4" width="3" height="15.3" rx="1.5" fill="#3a5a78"/><rect x="470" y="8.2" width="3" height="71.5" rx="1.5" fill="#3a5a78"/><rect x="475" y="13.0" width="3" height="62.0" rx="1.5" fill="#3a5a78"/><rect x="480" y="37.6" width="3" height="12.7" rx="1.5" fill="#3a5a78"/><rect x="485" y="39.7" width="3" height="8.6" rx="1.5" fill="#3a5a78"/><rect x="490" y="39.5" width="3" height="9.0" rx="1.5" fill="#3a5a78"/><rect x="495" y="40.7" width="3" height="6.6" rx="1.5" fill="#3a5a78"/><rect x="500" y="40.8" width="3" height="6.4" rx="1.5" fill="#3a5a78"/><rect x="505" y="39.9" width="3" height="8.3" rx="1.5" fill="#3a5a78"/><rect x="510" y="41.0" width="3" height="6.0" rx="1.5" fill="#3a5a78"/><rect x="515" y="38.9" width="3" height="10.2" rx="1.5" fill="#3a5a78"/><rect x="520" y="39.6" width="3" height="8.7" rx="1.5" fill="#3a5a78"/><rect x="525" y="40.9" width="3" height="6.2" rx="1.5" fill="#3a5a78"/><rect x="530" y="40.4" width="3" height="7.2" rx="1.5" fill="#3a5a78"/><rect x="535" y="40.3" width="3" height="7.5" rx="1.5" fill="#3a5a78"/><rect x="540" y="37.5" width="3" height="12.9" rx="1.5" fill="#3a5a78"/><rect x="545" y="12.9" width="3" height="62.2" rx="1.5" fill="#3a5a78"/><rect x="550" y="8.5" width="3" height="71.1" rx="1.5" fill="#3a5a78"/><rect x="555" y="36.8" width="3" height="14.4" rx="1.5" fill="#3a5a78"/><rect x="560" y="41.1" width="3" height="5.9" rx="1.5" fill="#3a5a78"/><rect x="565" y="40.9" width="3" height="6.2" rx="1.5" fill="#3a5a78"/><rect x="570" y="39.9" width="3" height="8.1" rx="1.5" fill="#3a5a78"/><rect x="575" y="39.2" width="3" height="9.7" rx="1.5" fill="#3a5a78"/><rect x="580" y="39.9" width="3" height="8.3" rx="1.5" fill="#3a5a78"/><rect x="585" y="40.8" width="3" height="6.4" rx="1.5" fill="#3a5a78"/><rect x="590" y="40.4" width="3" height="7.2" rx="1.5" fill="#3a5a78"/><rect x="595" y="39.6" width="3" height="8.8" rx="1.5" fill="#3a5a78"/><rect x="600" y="39.2" width="3" height="9.7" rx="1.5" fill="#3a5a78"/><rect x="605" y="40.0" width="3" height="8.0" rx="1.5" fill="#3a5a78"/><rect x="610" y="40.3" width="3" height="7.4" rx="1.5" fill="#3a5a78"/><rect x="615" y="38.5" width="3" height="11.0" rx="1.5" fill="#3a5a78"/><rect x="620" y="16.2" width="3" height="55.6" rx="1.5" fill="#3a5a78"/><rect x="625" y="5.1" width="3" height="77.8" rx="1.5" fill="#3a5a78"/><rect x="630" y="35.2" width="3" height="17.7" rx="1.5" fill="#3a5a78"/><rect x="635" y="39.1" width="3" height="9.8" rx="1.5" fill="#3a5a78"/><rect x="640" y="40.5" width="3" height="7.0" rx="1.5" fill="#3a5a78"/><rect x="645" y="40.8" width="3" height="6.4" rx="1.5" fill="#3a5a78"/><rect x="650" y="40.0" width="3" height="8.0" rx="1.5" fill="#3a5a78"/><rect x="655" y="39.1" width="3" height="9.8" rx="1.5" fill="#3a5a78"/><rect x="660" y="39.2" width="3" height="9.5" rx="1.5" fill="#3a5a78"/><rect x="665" y="40.2" width="3" height="7.6" rx="1.5" fill="#3a5a78"/><rect x="670" y="40.2" width="3" height="7.5" rx="1.5" fill="#3a5a78"/><rect x="675" y="40.7" width="3" height="6.5" rx="1.5" fill="#3a5a78"/><rect x="680" y="38.9" width="3" height="10.2" rx="1.5" fill="#3a5a78"/></svg>