<svg xmlns="http://www.w3.org/2000/svg" width="800" height="600" viewBox="0 0 800 600">
<defs>
  <filter id="blur"><feGaussianBlur stdDeviation="34"/></filter>
  <filter id="glow"><feGaussianBlur stdDeviation="8"/></filter>
  <linearGradient id="shade" x2="0" y2="1"><stop stop-color="#08090d" stop-opacity="0"/><stop offset="1" stop-color="#08090d" stop-opacity=".85"/></linearGradient>
  
</defs>
  <rect width="800" height="600" fill="#061621"/>
  <circle cx="190" cy="120" r="220" fill="#007fc6" opacity=".55" filter="url(#blur)"/>
  <circle cx="620" cy="150" r="240" fill="#782be8" opacity=".48" filter="url(#blur)"/>
  <g stroke="#55e5ff" stroke-width="8" opacity=".45"><path d="M0 140h800M0 220h800M0 300h800"/><path d="M110 0v410M300 0v410M500 0v410M690 0v410"/></g>
  <g transform="translate(210 190)"><path d="M0 86q42-54 84 0l34 196H-36z" fill="#161825"/><ellipse cx="42" cy="37" rx="34" ry="41" fill="#bd8169"/><path d="M4 26q15-54 67-27l9 54-20-28-56 22z" fill="#11131a"/><path d="M70 122l93 45" stroke="#bd8169" stroke-width="18" stroke-linecap="round"/></g>
  <g transform="translate(500 180)"><path d="M0 95q42-54 84 0l28 186H-30z" fill="#341e59"/><ellipse cx="42" cy="42" rx="34" ry="41" fill="#8e5e4b"/><path d="M5 30q8-54 64-30l13 60-27-32-50 23z" fill="#11131a"/><path d="M22 128l-88 49" stroke="#8e5e4b" stroke-width="18" stroke-linecap="round"/></g>
  <path d="M110 370h580l55 130H55z" fill="#11141d"/><g fill="#63ecff"><rect x="105" y="397" width="18" height="6" rx="3" opacity="0.3"/><rect x="139" y="397" width="18" height="6" rx="3" opacity="0.48"/><rect x="173" y="397" width="18" height="6" rx="3" opacity="0.6599999999999999"/><rect x="207" y="397" width="18" height="6" rx="3" opacity="0.8400000000000001"/><rect x="241" y="397" width="18" height="6" rx="3" opacity="0.3"/><rect x="275" y="397" width="18" height="6" rx="3" opacity="0.48"/><rect x="309" y="397" width="18" height="6" rx="3" opacity="0.6599999999999999"/><rect x="343" y="397" width="18" height="6" rx="3" opacity="0.8400000000000001"/><rect x="377" y="397" width="18" height="6" rx="3" opacity="0.3"/><rect x="411" y="397" width="18" height="6" rx="3" opacity="0.48"/><rect x="445" y="397" width="18" height="6" rx="3" opacity="0.6599999999999999"/><rect x="479" y="397" width="18" height="6" rx="3" opacity="0.8400000000000001"/><rect x="513" y="397" width="18" height="6" rx="3" opacity="0.3"/><rect x="547" y="397" width="18" height="6" rx="3" opacity="0.48"/><rect x="581" y="397" width="18" height="6" rx="3" opacity="0.6599999999999999"/><rect x="615" y="397" width="18" height="6" rx="3" opacity="0.8400000000000001"/><rect x="649" y="397" width="18" height="6" rx="3" opacity="0.3"/><rect x="683" y="397" width="18" height="6" rx="3" opacity="0.48"/></g>
  <g fill="#07080b"><circle cx="18" cy="500" r="25"/><path d="M-12 600v-74q30-24 60 0v74"/><circle cx="58.526315789473685" cy="513" r="25"/><path d="M28.526315789473685 600v-66q30-24 60 0v66"/><circle cx="99.05263157894737" cy="526" r="25"/><path d="M69.05263157894737 600v-58q30-24 60 0v58"/><circle cx="139.57894736842104" cy="539" r="25"/><path d="M109.57894736842104 600v-74q30-24 60 0v74"/><circle cx="180.10526315789474" cy="500" r="25"/><path d="M150.10526315789474 600v-66q30-24 60 0v66"/><circle cx="220.63157894736844" cy="513" r="25"/><path d="M190.63157894736844 600v-58q30-24 60 0v58"/><circle cx="261.1578947368421" cy="526" r="25"/><path d="M231.15789473684208 600v-74q30-24 60 0v74"/><circle cx="301.6842105263158" cy="539" r="25"/><path d="M271.6842105263158 600v-66q30-24 60 0v66"/><circle cx="342.2105263157895" cy="500" r="25"/><path d="M312.2105263157895 600v-58q30-24 60 0v58"/><circle cx="382.7368421052632" cy="513" r="25"/><path d="M352.7368421052632 600v-74q30-24 60 0v74"/><circle cx="423.2631578947369" cy="526" r="25"/><path d="M393.2631578947369 600v-66q30-24 60 0v66"/><circle cx="463.7894736842105" cy="539" r="25"/><path d="M433.7894736842105 600v-58q30-24 60 0v58"/><circle cx="504.3157894736842" cy="500" r="25"/><path d="M474.3157894736842 600v-74q30-24 60 0v74"/><circle cx="544.8421052631579" cy="513" r="25"/><path d="M514.8421052631579 600v-66q30-24 60 0v66"/><circle cx="585.3684210526316" cy="526" r="25"/><path d="M555.3684210526316 600v-58q30-24 60 0v58"/><circle cx="625.8947368421053" cy="539" r="25"/><path d="M595.8947368421053 600v-74q30-24 60 0v74"/><circle cx="666.421052631579" cy="500" r="25"/><path d="M636.421052631579 600v-66q30-24 60 0v66"/><circle cx="706.9473684210526" cy="513" r="25"/><path d="M676.9473684210526 600v-58q30-24 60 0v58"/><circle cx="747.4736842105264" cy="526" r="25"/><path d="M717.4736842105264 600v-74q30-24 60 0v74"/><circle cx="788" cy="539" r="25"/><path d="M758 600v-66q30-24 60 0v66"/></g>
</svg>