<svg xmlns="http://www.w3.org/2000/svg" width="400" height="400" viewBox="0 0 400 400">
  <defs>
    <linearGradient id="pp" x1="0" y1="0" x2=".4" y2="1">
      <stop offset="0%" stop-color="#d8c9b1"/>
      <stop offset="58%" stop-color="#d2c0a4"/>
      <stop offset="100%" stop-color="#a89a83"/>
    </linearGradient>
    <radialGradient id="vg" cx="50%" cy="46%" r="70%">
      <stop offset="58%" stop-color="#000" stop-opacity="0"/>
      <stop offset="100%" stop-color="#000" stop-opacity=".3"/>
    </radialGradient>
  </defs>
  <rect width="400" height="400" fill="url(#pp)"/>
  <path d="M310.6 323.2 l25.4 -2.9"
      stroke="#938673" stroke-opacity="0.120" stroke-width="1.1"/><path d="M169.6 22.4 l19 -1"
      stroke="#938673" stroke-opacity="0.122" stroke-width="0.9"/><path d="M259.2 139.8 l21.3 0.1"
      stroke="#938673" stroke-opacity="0.064" stroke-width="0.7"/><path d="M289.4 18.5 l20.4 -0.3"
      stroke="#938673" stroke-opacity="0.068" stroke-width="1.5"/><path d="M392.5 351 l14.8 1.6"
      stroke="#938673" stroke-opacity="0.095" stroke-width="1.6"/><path d="M69.9 113 l6.3 -1.6"
      stroke="#938673" stroke-opacity="0.055" stroke-width="1.1"/><path d="M230.6 105.4 l6.1 -0.4"
      stroke="#938673" stroke-opacity="0.102" stroke-width="0.9"/><path d="M186.5 177.8 l22.8 1.9"
      stroke="#938673" stroke-opacity="0.127" stroke-width="1.5"/><path d="M32.7 360.9 l14 3.5"
      stroke="#938673" stroke-opacity="0.122" stroke-width="1.0"/><path d="M185.1 27.5 l6.7 -2.3"
      stroke="#938673" stroke-opacity="0.062" stroke-width="0.8"/><path d="M179.5 206.5 l17.4 2.2"
      stroke="#938673" stroke-opacity="0.124" stroke-width="1.0"/><path d="M162.6 243.7 l21 -2.3"
      stroke="#938673" stroke-opacity="0.077" stroke-width="1.4"/><path d="M336.1 392.9 l22 -0.2"
      stroke="#938673" stroke-opacity="0.086" stroke-width="0.8"/><path d="M220.8 84.4 l27.6 0.1"
      stroke="#938673" stroke-opacity="0.139" stroke-width="1.4"/><path d="M143.3 76.3 l14.7 2"
      stroke="#938673" stroke-opacity="0.124" stroke-width="0.6"/><path d="M271.1 217.2 l14.2 -2.2"
      stroke="#938673" stroke-opacity="0.058" stroke-width="1.0"/><path d="M67.1 27.8 l19.1 -3.4"
      stroke="#938673" stroke-opacity="0.059" stroke-width="1.1"/><path d="M85.8 350.1 l19.7 -0.9"
      stroke="#938673" stroke-opacity="0.082" stroke-width="1.2"/><path d="M13.4 303.9 l15.8 -1.3"
      stroke="#938673" stroke-opacity="0.067" stroke-width="0.7"/><path d="M74.6 184.9 l21.4 -2.1"
      stroke="#938673" stroke-opacity="0.071" stroke-width="0.7"/><path d="M286.4 28.5 l6.5 -2.4"
      stroke="#938673" stroke-opacity="0.079" stroke-width="1.3"/><path d="M338.7 394.1 l26.8 2.4"
      stroke="#938673" stroke-opacity="0.058" stroke-width="0.8"/><path d="M270.2 57.6 l16.6 -2.8"
      stroke="#938673" stroke-opacity="0.102" stroke-width="0.7"/><path d="M311.2 56.8 l19 -3.2"
      stroke="#938673" stroke-opacity="0.130" stroke-width="0.9"/><path d="M307.5 123.1 l13.9 1.3"
      stroke="#938673" stroke-opacity="0.051" stroke-width="0.7"/><path d="M89.7 362.1 l20.5 -3.3"
      stroke="#938673" stroke-opacity="0.095" stroke-width="1.2"/><path d="M256.8 122 l27.7 -2.2"
      stroke="#938673" stroke-opacity="0.117" stroke-width="1.4"/><path d="M158.7 146.5 l23.2 -1.1"
      stroke="#938673" stroke-opacity="0.069" stroke-width="0.8"/><path d="M243 222.2 l10.1 -0.9"
      stroke="#938673" stroke-opacity="0.085" stroke-width="1.3"/><path d="M76.8 189 l15.3 1.9"
      stroke="#938673" stroke-opacity="0.138" stroke-width="1.0"/><path d="M142.3 388.3 l15.6 1.4"
      stroke="#938673" stroke-opacity="0.084" stroke-width="0.9"/><path d="M233.2 171.8 l18.1 0"
      stroke="#938673" stroke-opacity="0.139" stroke-width="1.4"/><path d="M310.9 320.3 l10.3 3.4"
      stroke="#938673" stroke-opacity="0.132" stroke-width="1.4"/><path d="M48.2 350.7 l13.5 0.9"
      stroke="#938673" stroke-opacity="0.111" stroke-width="1.0"/><path d="M388.8 398.3 l9.3 0.9"
      stroke="#938673" stroke-opacity="0.116" stroke-width="1.2"/><path d="M338.6 108.7 l8.3 -3"
      stroke="#938673" stroke-opacity="0.112" stroke-width="0.8"/><path d="M123 309.3 l14.2 2"
      stroke="#938673" stroke-opacity="0.074" stroke-width="1.1"/><path d="M386.4 92.1 l20.6 -3.4"
      stroke="#938673" stroke-opacity="0.056" stroke-width="1.5"/><path d="M398.7 240.8 l23.9 -0.1"
      stroke="#938673" stroke-opacity="0.060" stroke-width="0.9"/><path d="M16.6 167.3 l27.7 -3.1"
      stroke="#938673" stroke-opacity="0.136" stroke-width="1.2"/><path d="M114.6 169.3 l19.5 -1.6"
      stroke="#938673" stroke-opacity="0.052" stroke-width="1.1"/><path d="M25 200.5 l20.3 -1.6"
      stroke="#938673" stroke-opacity="0.139" stroke-width="0.7"/><path d="M300 187.8 l20.3 2.1"
      stroke="#938673" stroke-opacity="0.120" stroke-width="0.6"/><path d="M212.7 7.7 l12.1 2"
      stroke="#938673" stroke-opacity="0.054" stroke-width="1.5"/><path d="M307.7 239.9 l22.5 0.6"
      stroke="#938673" stroke-opacity="0.105" stroke-width="1.2"/><path d="M41 181.7 l22.9 -1.2"
      stroke="#938673" stroke-opacity="0.096" stroke-width="1.5"/>
  <circle cx="200" cy="200" r="160" fill="none" stroke="#8b7f6c" stroke-width="4.8" stroke-opacity=".3"/>
  <circle cx="200" cy="200" r="158" fill="none" stroke="#e4d9c8" stroke-width="1.4" stroke-opacity=".4"/>
  <circle cx="200" cy="200" r="79" fill="#020203"/>
  
  <defs>
    <radialGradient id="lpV" cx="42%" cy="34%" r="72%">
      <stop offset="0%" stop-color="#967044"/>
      <stop offset="72%" stop-color="#825520"/>
      <stop offset="100%" stop-color="#6d471b"/>
    </radialGradient>
    <filter id="paperV" x="-12%" y="-12%" width="124%" height="124%">
      <feTurbulence type="fractalNoise" baseFrequency=".7" numOctaves="3" seed="17" result="noise"/>
      <feColorMatrix in="noise" type="saturate" values="0" result="gray"/>
      <feComposite in="gray" in2="SourceAlpha" operator="in" result="maskedNoise"/>
      <feComponentTransfer in="maskedNoise" result="softNoise"><feFuncA type="table" tableValues="0 .18"/></feComponentTransfer>
      <feBlend in="SourceGraphic" in2="softNoise" mode="soft-light"/>
    </filter>
    <path id="atV" d="M139.95999999999998 200 A60.040000000000006 60.040000000000006 0 0 1 260.04 200" fill="none"/>
    <path id="abV" d="M138.44 200 A61.56 61.56 0 0 0 261.56 200" fill="none"/>
  </defs>
  <circle cx="200" cy="200" r="76" fill="url(#lpV)" filter="url(#paperV)"/>
  <circle cx="200" cy="200" r="69.2" fill="none" stroke="#291906" stroke-width="1.1" stroke-opacity=".5"/>
  <circle cx="200" cy="200" r="66.1" fill="none" stroke="#291906" stroke-width="0.5" stroke-opacity=".3"/>
  <circle cx="200" cy="200" r="54.7" fill="none" stroke="#291906" stroke-width="0.4" stroke-opacity=".18"/>
  <text font-family="Inter, system-ui, sans-serif" font-size="10.2" font-weight="700" fill="#291906"
    letter-spacing=".2em"><textPath href="#atV" startOffset="50%" text-anchor="middle">ЭХО</textPath></text>
  <text font-family="Inter, system-ui, sans-serif" font-size="7.3" font-weight="600" fill="#35210a"
    letter-spacing=".14em"><textPath href="#abV" startOffset="50%" text-anchor="middle">0642-А · 1922</textPath></text>
  <g text-anchor="middle" font-family="Inter, system-ui, sans-serif" fill="#291906">
    <text x="200" y="181.8" font-family="Iowan Old Style, Georgia, serif" font-size="12.3" font-weight="700" letter-spacing="-.015em">Гай-да тройка</text>
    <text x="200" y="225.8" font-size="8.3" font-weight="500" letter-spacing=".01em"
      fill="#342009">Н. Плевицкая</text>
    <text x="200" y="240.3" font-size="6.3" font-weight="600"
      letter-spacing=".1em" fill="#442b0e">78 ОБ/МИН · ЭЛЕКТРО</text>
  </g>
  <g fill="#291906" opacity=".52">
    <path d="M186.3 158.2 h7.8 l3.9 3.9 l-3.9 3.9 h-7.8 l-3.9 -3.9z"/>
    <path d="M213.7 158.2 h-7.8 l-3.9 3.9 l3.9 3.9 h7.8 l3.9 -3.9z"/>
  </g>
  <text x="200" y="254.7" text-anchor="middle" font-family="Inter, system-ui, sans-serif" font-size="4.5" font-weight="600" letter-spacing=".13em" fill="#291906" opacity=".55">ЗАПИСАНО ВЪ С.-ПЕТЕРБУРГѢ</text>
  <path d="M174.2 190.1 H225.8" stroke="#291906" stroke-width="0.6" stroke-opacity=".28"/>
  <path d="M178.7 233.4 H221.3" stroke="#291906" stroke-width="0.5" stroke-opacity=".2"/>
  <circle cx="200" cy="200" r="4.2" fill="#020202"/>
  <circle cx="200" cy="200" r="4.2" fill="none" stroke="#5b3c16" stroke-width="0.6"/>
  <circle cx="200" cy="200" r="77.5" fill="none" stroke="#000" stroke-opacity=".34" stroke-width="4.8"/>
  <g text-anchor="middle" font-family="Inter, system-ui, sans-serif" fill="#585145">
    <text x="200" y="46" font-size="17.2" font-weight="700" letter-spacing=".22em">ЭХО</text>
    <text x="200" y="62" font-size="10.4" font-weight="500" letter-spacing=".1em" opacity=".8">ПЛАСТИНКА 10″ · 78 ОБ/МИН</text>
    <text x="200" y="370" font-size="11.2" font-weight="500" font-family="Geist Mono, ui-monospace, monospace" letter-spacing=".04em" opacity=".75">0642-А</text>
  </g>
  <path d="M0 0 l40 0 l-40 32 Z" fill="#e9e0d2" opacity=".7"/>
  <rect width="400" height="400" fill="url(#vg)"/></svg>