<svg width="18" height="13" viewBox="0 0 18 13" fill="none" xmlns="http://www.w3.org/2000/svg">
  <path fill-rule="evenodd" clip-rule="evenodd" d="M8.5713 2.46628c2.4871.00011 4.8787.92219 6.6816 2.57567.1358.12765.3527.12604.4864-.00361l1.2975-1.26347a.342.342 0 0 0 .1049-.24752.347.347 0 0 0-.1079-.24631c-4.731-4.37472-12.194-4.37472-16.925744 0a.348.348 0 0 0-.1080482.24624.344.344 0 0 0 .1046812.24759L1.40255 5.03834c.1336.12985.35072.13146.48638.00361C3.69167 3.38836 6.08395 2.46628 8.5713 2.46628Zm-.00335 4.22028c1.35732-.00009 2.66615.51165 3.67235 1.43578.136.13116.3504.12831.4831-.00641l1.2872-1.3193a.367.367 0 0 0 .1045-.26063.37.37 0 0 0-.1097-.25845c-3.0638-2.89085-7.80852-2.89085-10.87235 0a.371.371 0 0 0-.1096.2585.368.368 0 0 0 .10477.26058l1.28691 1.3193c.13265.13472.34702.13757.4831.00641 1.00545-.92352 2.31329-1.43519 3.66972-1.43578Zm2.52445 2.79355a.4.4 0 0 1-.103.28073l-2.17613 2.45476a.32.32 0 0 1-.24157.1127.32.32 0 0 1-.24157-.1127L6.1531 9.76084a.404.404 0 0 1 .01054-.55655c1.3901-1.31389 3.42602-1.31389 4.81616 0a.406.406 0 0 1 .1126.27582Z" fill="currentColor"/>
</svg>
