<svg xmlns="http://www.w3.org/2000/svg" width="520" height="262" viewBox="0 0 520 262">
  <rect width="520" height="262" rx="10" fill="#f6f2ec"/>
  <rect x="9" y="9" width="502" height="244" rx="6" fill="none" stroke="#2b6b8f" stroke-width="2.5"/>
  <rect x="34" y="34" width="72" height="72" rx="8" fill="#6b3f2a"/>
  <text x="122" y="62" font-family="Geist, system-ui, sans-serif" font-weight="700" font-size="27" fill="#14181a">RUST BROWN</text>
  <text x="122" y="88" font-family="Geist, system-ui, sans-serif" font-size="15" fill="#6b7278">FERRUM COLORS · 17 ml · acrylic</text>
  <text x="34" y="140" font-family="Geist Mono, ui-monospace, monospace" font-size="15" fill="#14181a">FC-4127</text>
  <text x="34" y="166" font-family="Geist, system-ui, sans-serif" font-size="13" fill="#8b959a">Матовый · база</text>
  <text x="34" y="196" font-family="Geist, system-ui, sans-serif" font-size="13" fill="#8b959a">Взболтать перед</text>
  <text x="34" y="214" font-family="Geist, system-ui, sans-serif" font-size="13" fill="#8b959a">использованием</text>
  <g><rect x="228.00" y="150" width="2.90" height="76" fill="#14181a"/><rect x="233.80" y="150" width="2.90" height="76" fill="#14181a"/><rect x="239.60" y="150" width="2.90" height="66" fill="#14181a"/><rect x="245.40" y="150" width="2.90" height="66" fill="#14181a"/><rect x="248.30" y="150" width="2.90" height="66" fill="#14181a"/><rect x="251.20" y="150" width="2.90" height="66" fill="#14181a"/><rect x="254.10" y="150" width="2.90" height="66" fill="#14181a"/><rect x="259.90" y="150" width="2.90" height="66" fill="#14181a"/><rect x="268.60" y="150" width="2.90" height="66" fill="#14181a"/><rect x="271.50" y="150" width="2.90" height="66" fill="#14181a"/><rect x="274.40" y="150" width="2.90" height="66" fill="#14181a"/><rect x="280.20" y="150" width="2.90" height="66" fill="#14181a"/><rect x="283.10" y="150" width="2.90" height="66" fill="#14181a"/><rect x="286.00" y="150" width="2.90" height="66" fill="#14181a"/><rect x="291.80" y="150" width="2.90" height="66" fill="#14181a"/><rect x="294.70" y="150" width="2.90" height="66" fill="#14181a"/><rect x="303.40" y="150" width="2.90" height="66" fill="#14181a"/><rect x="306.30" y="150" width="2.90" height="66" fill="#14181a"/><rect x="315.00" y="150" width="2.90" height="66" fill="#14181a"/><rect x="323.70" y="150" width="2.90" height="66" fill="#14181a"/><rect x="326.60" y="150" width="2.90" height="66" fill="#14181a"/><rect x="332.40" y="150" width="2.90" height="66" fill="#14181a"/><rect x="335.30" y="150" width="2.90" height="66" fill="#14181a"/><rect x="346.90" y="150" width="2.90" height="66" fill="#14181a"/><rect x="355.60" y="150" width="2.90" height="66" fill="#14181a"/><rect x="361.40" y="150" width="2.90" height="76" fill="#14181a"/><rect x="367.20" y="150" width="2.90" height="76" fill="#14181a"/><rect x="373.00" y="150" width="2.90" height="66" fill="#14181a"/><rect x="375.90" y="150" width="2.90" height="66" fill="#14181a"/><rect x="378.80" y="150" width="2.90" height="66" fill="#14181a"/><rect x="387.50" y="150" width="2.90" height="66" fill="#14181a"/><rect x="393.30" y="150" width="2.90" height="66" fill="#14181a"/><rect x="399.10" y="150" width="2.90" height="66" fill="#14181a"/><rect x="402.00" y="150" width="2.90" height="66" fill="#14181a"/><rect x="404.90" y="150" width="2.90" height="66" fill="#14181a"/><rect x="413.60" y="150" width="2.90" height="66" fill="#14181a"/><rect x="416.50" y="150" width="2.90" height="66" fill="#14181a"/><rect x="425.20" y="150" width="2.90" height="66" fill="#14181a"/><rect x="428.10" y="150" width="2.90" height="66" fill="#14181a"/><rect x="433.90" y="150" width="2.90" height="66" fill="#14181a"/><rect x="436.80" y="150" width="2.90" height="66" fill="#14181a"/><rect x="442.60" y="150" width="2.90" height="66" fill="#14181a"/><rect x="445.50" y="150" width="2.90" height="66" fill="#14181a"/><rect x="454.20" y="150" width="2.90" height="66" fill="#14181a"/><rect x="465.80" y="150" width="2.90" height="66" fill="#14181a"/><rect x="474.50" y="150" width="2.90" height="66" fill="#14181a"/><rect x="477.40" y="150" width="2.90" height="66" fill="#14181a"/><rect x="483.20" y="150" width="2.90" height="66" fill="#14181a"/><rect x="486.10" y="150" width="2.90" height="66" fill="#14181a"/><rect x="494.80" y="150" width="2.90" height="76" fill="#14181a"/><rect x="500.60" y="150" width="2.90" height="76" fill="#14181a"/></g>
  <text x="365.75" y="244" text-anchor="middle" font-family="Geist Mono, ui-monospace, monospace" font-size="15" fill="#14181a" letter-spacing="3">4607128041272</text>
</svg>